<svg width="105" height="75" viewBox="0 0 105 75" fill="none" xmlns="http://www.w3.org/2000/svg">
<g filter="url(#filter0_d_2_2161)">
<g filter="url(#filter1_d_2_2161)">
<path d="M67.977 53.8662C65.977 52.2379 67.1284 49 69.7074 49H86.1767C87.6015 49 88.8329 49.9948 89.1323 51.3878C89.2023 51.7137 89.3258 52.0258 89.4977 52.3114L91.4048 55.48L92.9746 57.7406C93.3714 58.312 93.8268 58.8404 94.3332 59.3173L97.9048 62.68L100.098 64.5503C100.606 64.984 100.693 65.7368 100.296 66.2748C99.9761 66.7094 99.4166 66.8948 98.9001 66.7375L91.0952 64.36L78.7143 59.56L68.4343 54.1679C68.2722 54.0828 68.1189 53.9818 67.977 53.8662Z" fill="#2D8AC3"/>
</g>
<path d="M4 27.7261C4 12.4134 16.4134 0 31.726 0H69.1809C85.0972 0 98 12.9028 98 28.8191V31.7638C98 44.6157 88.4301 55.4564 75.6774 57.0505C74.2581 57.2279 72.8264 57.2855 71.3975 57.2227L30.5085 55.4254C15.6837 54.7737 4 42.5652 4 27.7261Z" fill="#2D8AC3"/>
<path d="M20.0909 34H16.1477V22.3636H20.1705C21.3258 22.3636 22.3182 22.5966 23.1477 23.0625C23.9811 23.5246 24.6212 24.1894 25.0682 25.0568C25.5152 25.9242 25.7386 26.9621 25.7386 28.1705C25.7386 29.3826 25.5133 30.4242 25.0625 31.2955C24.6155 32.1667 23.9697 32.8352 23.125 33.3011C22.2841 33.767 21.2727 34 20.0909 34ZM18.2557 32.1761H19.9886C20.7992 32.1761 21.4754 32.0284 22.017 31.733C22.5587 31.4337 22.9659 30.9886 23.2386 30.3977C23.5114 29.803 23.6477 29.0606 23.6477 28.1705C23.6477 27.2803 23.5114 26.5417 23.2386 25.9545C22.9659 25.3636 22.5625 24.9223 22.0284 24.6307C21.4981 24.3352 20.839 24.1875 20.0511 24.1875H18.2557V32.1761ZM31.5142 34.1705C30.6392 34.1705 29.8835 33.9886 29.2472 33.625C28.6146 33.2576 28.1278 32.7386 27.7869 32.0682C27.446 31.3939 27.2756 30.6004 27.2756 29.6875C27.2756 28.7898 27.446 28.0019 27.7869 27.3239C28.1316 26.642 28.6127 26.1117 29.2301 25.733C29.8475 25.3504 30.5729 25.1591 31.4062 25.1591C31.9441 25.1591 32.4517 25.2462 32.929 25.4205C33.41 25.5909 33.8343 25.8561 34.2017 26.2159C34.5729 26.5758 34.8646 27.0341 35.0767 27.5909C35.2888 28.1439 35.3949 28.803 35.3949 29.5682V30.1989H28.2415V28.8125H33.4233C33.4195 28.4186 33.3343 28.0682 33.1676 27.7614C33.0009 27.4508 32.768 27.2064 32.4688 27.0284C32.1733 26.8504 31.8286 26.7614 31.4347 26.7614C31.0142 26.7614 30.6449 26.8636 30.3267 27.0682C30.0085 27.2689 29.7604 27.5341 29.5824 27.8636C29.4081 28.1894 29.3191 28.5473 29.3153 28.9375V30.1477C29.3153 30.6553 29.4081 31.0909 29.5938 31.4545C29.7794 31.8144 30.0388 32.0909 30.3722 32.2841C30.7055 32.4735 31.0956 32.5682 31.5426 32.5682C31.8419 32.5682 32.1127 32.5265 32.3551 32.4432C32.5975 32.3561 32.8078 32.2292 32.9858 32.0625C33.1638 31.8958 33.2983 31.6894 33.3892 31.4432L35.3097 31.6591C35.1884 32.1667 34.9574 32.6098 34.6165 32.9886C34.2794 33.3636 33.8475 33.6553 33.321 33.8636C32.7945 34.0682 32.1922 34.1705 31.5142 34.1705ZM37.1349 34V25.2727H39.1293V26.7273H39.2202C39.3793 26.2235 39.652 25.8352 40.0384 25.5625C40.4285 25.286 40.8736 25.1477 41.3736 25.1477C41.4872 25.1477 41.6141 25.1534 41.7543 25.1648C41.8982 25.1723 42.0175 25.1856 42.1122 25.2045V27.0966C42.0251 27.0663 41.8868 27.0398 41.6974 27.017C41.5118 26.9905 41.3319 26.9773 41.1577 26.9773C40.7827 26.9773 40.4455 27.0587 40.1463 27.2216C39.8509 27.3807 39.6179 27.6023 39.4474 27.8864C39.277 28.1705 39.1918 28.4981 39.1918 28.8693V34H37.1349ZM43.4787 34V25.2727H45.473V26.7273H45.5639C45.723 26.2235 45.9957 25.8352 46.3821 25.5625C46.7723 25.286 47.2173 25.1477 47.7173 25.1477C47.831 25.1477 47.9579 25.1534 48.098 25.1648C48.242 25.1723 48.3613 25.1856 48.456 25.2045V27.0966C48.3688 27.0663 48.2306 27.0398 48.0412 27.017C47.8556 26.9905 47.6757 26.9773 47.5014 26.9773C47.1264 26.9773 46.7893 27.0587 46.4901 27.2216C46.1946 27.3807 45.9616 27.6023 45.7912 27.8864C45.6207 28.1705 45.5355 28.4981 45.5355 28.8693V34H43.4787ZM51.3665 37.2727C51.0862 37.2727 50.8267 37.25 50.5881 37.2045C50.3532 37.1629 50.1657 37.1136 50.0256 37.0568L50.5028 35.4545C50.8021 35.5417 51.0691 35.5833 51.304 35.5795C51.5388 35.5758 51.7453 35.5019 51.9233 35.358C52.1051 35.2178 52.2585 34.983 52.3835 34.6534L52.5597 34.1818L49.3949 25.2727H51.5767L53.5881 31.8636H53.679L55.696 25.2727H57.8835L54.3892 35.0568C54.2263 35.5189 54.0104 35.9148 53.7415 36.2443C53.4725 36.5777 53.143 36.8314 52.7528 37.0057C52.3665 37.1837 51.9044 37.2727 51.3665 37.2727Z" fill="white"/>
<path fill-rule="evenodd" clip-rule="evenodd" d="M61.9384 25.3062C61.7808 25.6528 61.6992 26.029 61.6992 26.4098V30.7933C61.6992 31.3652 61.8743 31.9234 62.201 32.3929C62.4883 32.8057 62.8815 33.1336 63.3393 33.342L63.5226 33.4254C63.802 33.5526 64.1054 33.6184 64.4123 33.6184C65.5983 33.6184 66.5597 32.657 66.5597 31.471V26.2055C66.5597 24.8645 65.4644 23.7773 64.1234 23.7773C64.006 23.7773 63.8883 23.7863 63.7723 23.804C63.0006 23.9223 62.3406 24.422 62.0173 25.1327L61.9384 25.3062ZM66.0893 25.7241C64.6461 25.7241 63.4762 26.8941 63.4762 28.3373V29.167C63.4762 30.6102 64.6461 31.7801 66.0893 31.7801V25.7241Z" fill="white"/>
<path fill-rule="evenodd" clip-rule="evenodd" d="M66.6993 23.8783C66.2998 24.5145 66.0879 25.2504 66.0879 26.0016V31.4869C66.0879 32.5414 66.4959 33.5549 67.2264 34.3153C67.6877 34.7955 68.2595 35.1555 68.8919 35.3641L69.4817 35.5586C70.1469 35.7779 70.8428 35.8897 71.5432 35.8897H75.5998V21.9392H70.4859L69.6402 22.0331C68.4298 22.1675 67.3469 22.8469 66.6993 23.8783ZM72.998 23.7776C70.2208 23.7776 67.9694 26.029 67.9694 28.8062C67.9694 31.5835 70.2208 33.8349 72.998 33.8349H73.9273V23.7776H72.998Z" fill="white"/>
<rect x="64.208" y="23.7773" width="3.24031" height="1.40586" fill="white"/>
<rect x="64.3125" y="32.2124" width="3.24031" height="1.40586" fill="white"/>
<path d="M72.3803 36.8522C72.5368 36.5153 72.8893 36.3143 73.2589 36.3511C73.8596 36.411 74.2198 37.0477 73.9618 37.5934L72.1072 41.5165L70.6884 40.4939L72.3803 36.8522Z" fill="white" stroke="white" stroke-width="5" stroke-linejoin="round"/>
<path fill-rule="evenodd" clip-rule="evenodd" d="M84.046 15.9695L75.3916 21.9415V35.889L84.992 41.9327C85.1732 42.0468 85.3829 42.1073 85.597 42.1073C86.2242 42.1073 86.7327 41.5988 86.7327 40.9716V17.3797C86.7327 16.4334 85.9655 15.6663 85.0192 15.6663C84.6716 15.6663 84.3321 15.772 84.046 15.9695ZM85.4264 17.9373L76.5417 23.5607V34.4291L85.4264 39.8363V17.9373Z" fill="white"/>
<rect width="1.79781" height="4.40803" rx="0.898904" transform="matrix(-0.638118 0.769939 -0.748058 -0.663634 91.9619 34.9214)" fill="white"/>
<rect width="1.82339" height="4.34373" rx="0.911696" transform="matrix(-0.00977118 -0.999952 0.999945 -0.0104591 89.7305 29.8638)" fill="white"/>
<rect width="1.78863" height="4.43066" rx="0.894314" transform="matrix(0.746684 0.665179 -0.639692 0.768631 90.4395 21.9673)" fill="white"/>
</g>
<defs>
<filter id="filter0_d_2_2161" x="0" y="0" width="105" height="75" filterUnits="userSpaceOnUse" color-interpolation-filters="sRGB">
<feFlood flood-opacity="0" result="BackgroundImageFix"/>
<feColorMatrix in="SourceAlpha" type="matrix" values="0 0 0 0 0 0 0 0 0 0 0 0 0 0 0 0 0 0 127 0" result="hardAlpha"/>
<feOffset dy="4"/>
<feGaussianBlur stdDeviation="2"/>
<feComposite in2="hardAlpha" operator="out"/>
<feColorMatrix type="matrix" values="0 0 0 0 0 0 0 0 0 0 0 0 0 0 0 0 0 0 0.25 0"/>
<feBlend mode="normal" in2="BackgroundImageFix" result="effect1_dropShadow_2_2161"/>
<feBlend mode="normal" in="SourceGraphic" in2="effect1_dropShadow_2_2161" result="shape"/>
</filter>
<filter id="filter1_d_2_2161" x="62.9609" y="49" width="41.584" height="25.7927" filterUnits="userSpaceOnUse" color-interpolation-filters="sRGB">
<feFlood flood-opacity="0" result="BackgroundImageFix"/>
<feColorMatrix in="SourceAlpha" type="matrix" values="0 0 0 0 0 0 0 0 0 0 0 0 0 0 0 0 0 0 127 0" result="hardAlpha"/>
<feOffset dy="4"/>
<feGaussianBlur stdDeviation="2"/>
<feComposite in2="hardAlpha" operator="out"/>
<feColorMatrix type="matrix" values="0 0 0 0 0 0 0 0 0 0 0 0 0 0 0 0 0 0 0.25 0"/>
<feBlend mode="normal" in2="BackgroundImageFix" result="effect1_dropShadow_2_2161"/>
<feBlend mode="normal" in="SourceGraphic" in2="effect1_dropShadow_2_2161" result="shape"/>
</filter>
</defs>
</svg>
