<svg width="294" height="294" viewBox="0 0 294 294" fill="none" xmlns="http://www.w3.org/2000/svg">
<g filter="url(#filter0_d_131_767)">
<rect x="30" y="35" width="200" height="200" rx="100" fill="url(#paint0_linear_131_767)"/>
</g>
<path fill-rule="evenodd" clip-rule="evenodd" d="M130 35C74.7715 35 30 79.7715 30 135C30 190.228 74.7715 235 130 235C185.228 235 230 190.228 230 135C230 79.7715 185.228 35 130 35ZM146.556 190.624C152.359 189.344 157.735 187.595 162.684 185.376L158.844 173.6C154.492 175.733 149.713 177.397 144.508 178.592C139.303 179.787 134.183 180.384 129.148 180.384C120.444 180.384 112.977 178.592 106.748 175.008C100.604 171.509 95.868 166.56 92.54 160.16C89.2973 153.675 87.676 146.037 87.676 137.248C87.676 127.861 89.5107 119.456 93.18 112.032C96.8493 104.608 102.055 98.72 108.796 94.368C115.623 90.016 123.644 87.84 132.86 87.84C140.967 87.84 148.007 89.5467 153.98 92.96C160.039 96.288 164.732 100.896 168.06 106.784C171.473 112.672 173.18 119.413 173.18 127.008C173.18 132.213 172.455 136.779 171.004 140.704C169.553 144.544 167.676 147.531 165.372 149.664C163.153 151.797 160.807 152.864 158.332 152.864C156.113 152.864 154.663 151.968 153.98 150.176C153.297 148.384 153.212 146.08 153.724 143.264L159.1 112.544C155.26 110.069 151.207 108.064 146.94 106.528C142.673 104.992 138.321 104.224 133.884 104.224C125.948 104.224 119.761 106.528 115.324 111.136C110.972 115.744 108.071 122.485 106.62 131.36L105.724 136.992C104.359 145.355 104.999 152.181 107.644 157.472C110.375 162.677 114.641 165.28 120.444 165.28C123.516 165.28 126.673 164.555 129.916 163.104C133.244 161.653 136.871 158.837 140.796 154.656C141.82 158.069 143.697 160.587 146.428 162.208C149.244 163.829 152.657 164.64 156.668 164.64C162.385 164.64 167.463 163.019 171.9 159.776C176.337 156.533 179.836 152.096 182.396 146.464C185.041 140.747 186.364 134.261 186.364 127.008C186.364 119.584 185.084 112.757 182.524 106.528C179.964 100.299 176.295 94.88 171.516 90.272C166.823 85.664 161.191 82.08 154.62 79.52C148.049 76.96 140.796 75.68 132.86 75.68C123.985 75.68 115.964 77.2587 108.796 80.416C101.628 83.488 95.484 87.7973 90.364 93.344C85.244 98.8907 81.3187 105.419 78.588 112.928C75.8573 120.437 74.492 128.544 74.492 137.248C74.492 148.256 76.668 157.899 81.02 166.176C85.4573 174.539 91.7293 181.024 99.836 185.632C108.028 190.24 117.799 192.544 129.148 192.544C134.951 192.544 140.753 191.904 146.556 190.624ZM120.7 148.384C119.761 145.995 119.719 142.197 120.572 136.992L121.468 131.36C122.151 127.008 123.601 123.552 125.82 120.992C128.124 118.432 131.239 117.152 135.164 117.152C136.529 117.152 137.852 117.365 139.132 117.792C140.497 118.219 141.948 118.773 143.484 119.456L139.644 141.472C136.913 145.227 134.396 147.915 132.092 149.536C129.873 151.072 127.783 151.84 125.82 151.84C123.431 151.84 121.724 150.688 120.7 148.384Z" fill="white"/>
<defs>
<filter id="filter0_d_131_767" x="0.85" y="0.85" width="292.3" height="292.3" filterUnits="userSpaceOnUse" color-interpolation-filters="sRGB">
<feFlood flood-opacity="0" result="BackgroundImageFix"/>
<feColorMatrix in="SourceAlpha" type="matrix" values="0 0 0 0 0 0 0 0 0 0 0 0 0 0 0 0 0 0 127 0" result="hardAlpha"/>
<feMorphology radius="0.15" operator="dilate" in="SourceAlpha" result="effect1_dropShadow_131_767"/>
<feOffset dx="17" dy="12"/>
<feGaussianBlur stdDeviation="23"/>
<feComposite in2="hardAlpha" operator="out"/>
<feColorMatrix type="matrix" values="0 0 0 0 0 0 0 0 0 0 0 0 0 0 0 0 0 0 0.17 0"/>
<feBlend mode="normal" in2="BackgroundImageFix" result="effect1_dropShadow_131_767"/>
<feBlend mode="normal" in="SourceGraphic" in2="effect1_dropShadow_131_767" result="shape"/>
</filter>
<linearGradient id="paint0_linear_131_767" x1="200" y1="45" x2="60.5" y2="223.5" gradientUnits="userSpaceOnUse">
<stop stop-color="#98328A"/>
<stop offset="1" stop-color="#2D8AC3"/>
</linearGradient>
</defs>
</svg>
